<svg width="47" height="37" viewBox="0 0 47 37" fill="none" xmlns="http://www.w3.org/2000/svg">
<path fill-rule="evenodd" clip-rule="evenodd" d="M32.6371 0H42.118C44.7128 0 46.8145 2.10169 46.8145 4.69641V31.5202C46.8145 34.1199 44.7128 36.2215 42.118 36.2215H15.2942C13.3369 36.2215 11.6612 35.028 10.9576 33.3259C12.0062 33.2252 12.9604 32.6911 13.597 31.8352C14.5063 30.6249 15.5626 29.7133 16.7329 29.0974C21.1422 26.7989 23.8859 22.2809 23.8859 17.3066C23.8859 10.0002 17.95 4.05026 10.6462 4.01966C10.9741 1.74587 12.9294 0 15.2943 0H24.7747V3.49837C24.7747 4.17891 25.3315 4.73053 26.0068 4.73053H31.405C32.0854 4.73053 32.6371 4.17891 32.6371 3.49837V0ZM29.3951 28.6759V31.5969C29.3951 32.0053 29.7265 32.3368 30.135 32.3368H41.0519C41.4604 32.3368 41.7918 32.0053 41.7918 31.5969V28.6759C41.7918 28.2674 41.4605 27.936 41.0519 27.936H30.135C29.7266 27.9361 29.3951 28.2674 29.3951 28.6759Z" fill="#9D7B6D"/>
<path fill-rule="evenodd" clip-rule="evenodd" d="M9.75159 30.2284C8.63737 28.7226 7.19175 27.5104 5.55056 26.6221C1.90678 24.6495 -0.442221 20.6068 0.0696545 16.0669C0.619217 11.2336 4.53431 7.32624 9.36759 6.78408C15.7745 6.06896 21.1875 11.068 21.1875 17.3091C21.1875 21.4047 18.8762 24.9432 15.4809 26.7124C13.8848 27.5481 12.5221 28.7753 11.438 30.2208L11.4343 30.2258C11.0158 30.79 10.1719 30.7913 9.75159 30.2284ZM10.5945 22.2815C7.85344 22.2815 5.622 20.0564 5.622 17.3089C5.622 14.568 7.85353 12.3364 10.5945 12.3364C13.3421 12.3364 15.5672 14.568 15.5672 17.3089C15.5672 20.0565 13.3421 22.2815 10.5945 22.2815Z" fill="#EA0C0C"/>
</svg>
