<svg width="32" height="32" viewBox="0 0 32 32" fill="none" xmlns="http://www.w3.org/2000/svg">
<g clip-path="url(#clip0_21468_81)">
<path d="M15.9998 31.9996C24.8363 31.9996 31.9996 24.8363 31.9996 15.9998C31.9996 7.16336 24.8363 0 15.9998 0C7.16336 0 0 7.16336 0 15.9998C0 24.8363 7.16336 31.9996 15.9998 31.9996Z" fill="#41B4E6"/>
<path d="M14.4458 18.3312L21.6765 23.7904L25.3264 8.20996L6.67285 15.5474L12.3489 17.4275L22.7079 10.479L14.4458 18.3312Z" fill="white"/>
<path d="M12.3496 17.427L13.9042 23.021L14.4465 18.3308L22.7086 10.4785L12.3496 17.427Z" fill="#D2D2D7"/>
<path d="M16.7966 20.1053L13.9043 23.0213L14.4466 18.3311L16.7966 20.1053Z" fill="#B9B9BE"/>
</g>
<defs>
<clipPath id="clip0_21468_81">
<rect width="32" height="32" fill="white"/>
</clipPath>
</defs>
</svg>
