<svg width="32" height="32" viewBox="0 0 32 32" fill="none" xmlns="http://www.w3.org/2000/svg">
<g clip-path="url(#clip0_21468_62)">
<path d="M16 31.9999C24.8365 31.9999 31.9999 24.8365 31.9999 16C31.9999 7.16343 24.8365 0 16 0C7.16343 0 0 7.16343 0 16C0 24.8365 7.16343 31.9999 16 31.9999Z" fill="#41B4E6"/>
<path d="M21.5992 26.0599H10.4012C7.93759 26.0599 5.94043 24.0628 5.94043 21.5992V10.4012C5.94043 7.93759 7.93753 5.94043 10.4012 5.94043H21.5992C24.0628 5.94043 26.06 7.93753 26.06 10.4012V21.5992C26.0599 24.0628 24.0628 26.0599 21.5992 26.0599Z" fill="#6E64C3"/>
<path d="M14.6056 14.214C14.7598 14.1007 14.8623 13.9307 14.8907 13.7414C14.9191 13.5522 14.8707 13.3596 14.7565 13.2062L13.9987 12.1881C13.9098 12.0686 13.7764 11.9903 13.6288 11.9706C13.4812 11.951 13.3317 11.9917 13.2147 12.0838C13.075 12.1937 12.9186 12.3165 12.7706 12.4317C12.4063 12.7154 12.2688 13.2021 12.43 13.6347C13.3194 16.0213 15.1891 17.914 17.5602 18.8338C18.0479 19.023 18.6014 18.8273 18.8604 18.3729L19.1515 17.8619C19.2946 17.6109 19.2197 17.2919 18.9799 17.1308L18.0526 16.5078C17.8905 16.399 17.6912 16.3608 17.5004 16.402C17.3096 16.4431 17.1433 16.5601 17.0406 16.7262C17.0103 16.7752 16.981 16.8228 16.9536 16.8671C16.9154 16.9291 16.8538 16.9729 16.7828 16.9888C16.7118 17.0046 16.6374 16.991 16.5765 16.9511C15.6875 16.369 14.928 15.6082 14.3475 14.718C14.2687 14.5973 14.2989 14.4359 14.4161 14.3519C14.4745 14.3099 14.5392 14.2627 14.6056 14.214Z" fill="white"/>
<path d="M19.4638 15.5282C19.3107 15.5282 19.1865 15.404 19.1865 15.2509C19.1865 13.4259 17.7018 11.9412 15.8769 11.9412C15.7237 11.9412 15.5996 11.817 15.5996 11.664C15.5996 11.5108 15.7238 11.3867 15.8769 11.3867C18.0076 11.3867 19.741 13.1203 19.741 15.2509C19.741 15.404 19.617 15.5282 19.4638 15.5282Z" fill="white"/>
<path d="M18.5949 15.5275C18.4418 15.5275 18.3177 15.4033 18.3177 15.2502C18.3177 13.9043 17.2227 12.8094 15.8769 12.8094C15.7237 12.8094 15.5996 12.6852 15.5996 12.5321C15.5996 12.379 15.7238 12.2549 15.8769 12.2549C17.5285 12.2549 18.8722 13.5986 18.8722 15.2503C18.8722 15.4033 18.748 15.5275 18.5949 15.5275Z" fill="white"/>
<path d="M17.7416 15.5286C17.5884 15.5286 17.4643 15.4044 17.4643 15.2513C17.4643 14.376 16.7521 13.6639 15.8769 13.6639C15.7237 13.6639 15.5996 13.5397 15.5996 13.3866C15.5996 13.2335 15.7238 13.1094 15.8769 13.1094C17.058 13.1094 18.0189 14.0703 18.0189 15.2514C18.0189 15.4045 17.8947 15.5286 17.7416 15.5286Z" fill="white"/>
<path d="M22.8865 13.8801C22.8865 11.1029 20.6352 8.85156 17.858 8.85156H14.2978C11.4355 8.85156 9.11523 11.1718 9.11523 14.0341V16.2696C9.11523 18.4779 10.497 20.3623 12.4426 21.1088V22.8647C12.4426 23.0727 12.5736 23.2614 12.7685 23.3342C12.8251 23.3554 12.8841 23.3655 12.9426 23.3655C13.0854 23.3655 13.2256 23.3046 13.3224 23.1931L14.8326 21.4522H17.8581C20.6353 21.4522 22.8866 19.2009 22.8866 16.4236V13.8801H22.8865ZM21.7159 16.4236C21.7159 18.5509 19.9853 20.2815 17.8581 20.2815H15.1762L13.1096 22.6846C13.0826 22.7159 13.0389 22.7272 13.0001 22.7129C12.9613 22.6985 12.9355 22.6615 12.9355 22.6201C12.9355 22.1081 12.9355 20.9581 12.9355 20.043C11.392 19.484 10.286 18.0037 10.286 16.2696V14.0342C10.286 11.822 12.0857 10.0223 14.2979 10.0223H17.8581C19.9853 10.0223 21.7159 11.7529 21.7159 13.8801V16.4236H21.7159Z" fill="white"/>
</g>
<defs>
<clipPath id="clip0_21468_62">
<rect width="32" height="32" fill="white"/>
</clipPath>
</defs>
</svg>
